HIERARCHY
ROOT Hips
{
	OFFSET 0.000000 0.000000 0.000000
	CHANNELS 6 Xposition Yposition Zposition Zrotation Yrotation Xrotation 
	JOINT LHipJoint
	{
		OFFSET 0.000000 0.000000 0.000000
		CHANNELS 3 Zrotation Yrotation Xrotation
		JOINT LeftUpLeg
		{
			OFFSET 1.363060 -1.794630 0.839290
			CHANNELS 3 Zrotation Yrotation Xrotation
			JOINT LeftLeg
			{
				OFFSET 2.448110 -6.726130 0.000000
				CHANNELS 3 Zrotation Yrotation Xrotation
				JOINT LeftFoot
				{
					OFFSET 2.562200 -7.039590 0.000000
					CHANNELS 3 Zrotation Yrotation Xrotation
					JOINT LeftToeBase
					{
						OFFSET 0.157640 -0.433110 2.322550
						CHANNELS 3 Zrotation Yrotation Xrotation
						End Site
						{
							OFFSET 0.000000 0.000000 0.000000
						}
					}
				}
			}
		}
	}
	JOINT RHipJoint
	{
		OFFSET 0.000000 0.000000 0.000000
		CHANNELS 3 Zrotation Yrotation Xrotation
		JOINT RightUpLeg
		{
			OFFSET -1.305520 -1.794630 0.839290
			CHANNELS 3 Zrotation Yrotation Xrotation
			JOINT RightLeg
			{
				OFFSET -2.542530 -6.985550 0.000000
				CHANNELS 3 Zrotation Yrotation Xrotation
				JOINT RightFoot
				{
					OFFSET -2.568260 -7.056230 0.000000
					CHANNELS 3 Zrotation Yrotation Xrotation
					JOINT RightToeBase
					{
						OFFSET -0.164730 -0.452590 2.363150
						CHANNELS 3 Zrotation Yrotation Xrotation
						End Site
						{
							OFFSET 0.000000 0.000000 0.000000
						}
					}
				}
			}
		}
	}
	JOINT LowerBack
	{
		OFFSET 0.000000 0.000000 0.000000
		CHANNELS 3 Zrotation Yrotation Xrotation
		JOINT Spine
		{
			OFFSET 0.028270 2.035590 -0.193380
			CHANNELS 3 Zrotation Yrotation Xrotation
			JOINT Spine1
			{
				OFFSET 0.056720 2.048850 -0.042750
				CHANNELS 3 Zrotation Yrotation Xrotation
				JOINT Neck
				{
					OFFSET 0.000000 0.000000 0.000000
					CHANNELS 3 Zrotation Yrotation Xrotation
					JOINT Neck1
					{
						OFFSET -0.054170 1.746240 0.172020
						CHANNELS 3 Zrotation Yrotation Xrotation
						JOINT Head
						{
							OFFSET 0.104070 1.761360 -0.123970
							CHANNELS 3 Zrotation Yrotation Xrotation
							End Site
							{
								OFFSET 0.000000 0.000000 0.000000
							}
						}
					}
				}
				JOINT LeftShoulder
				{
					OFFSET 0.000000 0.000000 0.000000
					CHANNELS 3 Zrotation Yrotation Xrotation
					JOINT LeftArm
					{
						OFFSET 3.362410 1.200890 -0.311210
						CHANNELS 3 Zrotation Yrotation Xrotation
						JOINT LeftForeArm
						{
							OFFSET 4.983000 -0.000000 -0.000000
							CHANNELS 3 Zrotation Yrotation Xrotation
							JOINT LeftHand
							{
								OFFSET 3.483560 -0.000000 -0.000000
								CHANNELS 3 Zrotation Yrotation Xrotation
								JOINT LeftFingerBase
								{
									OFFSET 0.000000 0.000000 0.000000
									CHANNELS 3 Zrotation Yrotation Xrotation
									JOINT LeftHandIndex1
									{
										OFFSET 0.715260 -0.000000 -0.000000
										CHANNELS 3 Zrotation Yrotation Xrotation
										End Site
										{
											OFFSET 0.000000 0.000000 0.000000
										}
									}
								}
								JOINT LThumb
								{
									OFFSET 0.000000 0.000000 0.000000
									CHANNELS 3 Zrotation Yrotation Xrotation
									End Site
									{
										OFFSET 0.000000 0.000000 0.000000
									}
								}
							}
						}
					}
				}
				JOINT RightShoulder
				{
					OFFSET 0.000000 0.000000 0.000000
					CHANNELS 3 Zrotation Yrotation Xrotation
					JOINT RightArm
					{
						OFFSET -3.136600 1.374050 -0.404650
						CHANNELS 3 Zrotation Yrotation Xrotation
						JOINT RightForeArm
						{
							OFFSET -5.241900 -0.000000 -0.000000
							CHANNELS 3 Zrotation Yrotation Xrotation
							JOINT RightHand
							{
								OFFSET -3.444170 -0.000000 -0.000000
								CHANNELS 3 Zrotation Yrotation Xrotation
								JOINT RightFingerBase
								{
									OFFSET 0.000000 0.000000 0.000000
									CHANNELS 3 Zrotation Yrotation Xrotation
									JOINT RightHandIndex1
									{
										OFFSET -0.622530 -0.000000 -0.000000
										CHANNELS 3 Zrotation Yrotation Xrotation
										End Site
										{
											OFFSET 0.000000 0.000000 0.000000
										}
									}
								}
								JOINT RThumb
								{
									OFFSET 0.000000 0.000000 0.000000
									CHANNELS 3 Zrotation Yrotation Xrotation
									End Site
									{
										OFFSET 0.000000 0.000000 0.000000
									}
								}
							}
						}
					}
				}
			}
		}
	}
}
MOTION
Frames: 11
Frame Time: 0.008333
0.082021 18.515036 -31.588319 -1.215227 0.177135 7.673417 -1.766994 1.839779 1.276095 -13.458099 -11.285343 -9.638546 -2.484978 5.721508 17.367111 -1.878217 7.997488 1.277782 0.237300 -3.134900 -8.654500 3.463112 -0.298524 0.713776 10.588601 7.867927 -18.218175 -0.583437 -11.654161 32.377694 -0.315163 -4.346070 -7.527373 -0.257500 -3.264600 9.016300 -0.670895 1.030004 -5.005416 2.573778 1.876030 -3.876405 -3.998829 0.701898 1.492389 -4.283599 0.069748 -5.201812 15.167269 -1.821860 12.031616 1.190200 0.062200 3.987400 -13.763154 -11.359364 1.121540 -67.893864 3.890266 34.314892 19.952073 -20.925354 -6.826988 -0.926773 -7.739840 -27.214473 39.995077 49.841209 38.125500 -7.125000 0.000000 0.000000 178.422000 2.359100 1.512300 14.689219 11.039264 0.792781 67.753236 -7.094832 29.069636 -16.586966 20.946522 -5.235565 -0.183553 -2.883713 -0.702204 -24.286648 44.254555 -18.285400 7.125000 0.000000 0.000000 7.602500 19.719200 9.789300 
0.157615 18.512383 -31.595562 -1.036549 0.085611 7.655537 -1.725472 1.799239 1.292395 -13.956516 -10.369410 -10.033647 -2.482345 5.760885 17.510431 -1.549947 6.977643 1.706456 0.233100 -3.107700 -8.578800 3.355036 -0.279862 0.720344 10.216711 7.283802 -18.546242 -0.639833 -11.690030 32.467976 -0.221240 -4.499661 -6.920740 -0.155100 -2.537800 6.994500 -0.889372 0.973698 -5.170873 2.707774 1.815448 -3.486058 -3.885288 0.680950 1.684665 -4.694196 0.224522 -5.613501 15.688062 -1.598065 11.703099 1.336700 0.164900 4.022900 -13.762674 -11.393729 1.085260 -68.119650 3.611274 33.817840 19.941956 -20.877062 -6.796253 -0.950785 -7.715670 -27.066921 39.699432 49.648585 37.771100 -7.125000 0.000000 0.000000 178.400400 2.087200 1.540900 14.727565 11.057607 0.804017 67.338659 -6.686865 29.251404 -16.435526 20.777445 -5.180336 -0.181494 -2.905290 -0.659403 -24.383979 44.382647 -18.408900 7.125000 0.000000 0.000000 7.598000 19.892100 9.797100 
0.231475 18.503406 -31.606682 -1.052506 -0.062733 7.640190 -1.683910 1.755411 1.265015 -14.252821 -9.626561 -10.414516 -2.448751 5.855994 17.760897 -1.399463 6.510255 2.066926 0.272100 -3.355600 -9.270300 3.274934 -0.252271 0.683461 10.012303 6.913996 -18.759519 -0.703281 -11.733408 32.582315 -0.442194 -4.005823 -6.217025 -0.189200 -2.801300 7.726100 -0.948314 1.005056 -4.405793 2.769147 1.858748 -3.714600 -3.881493 0.690044 0.895942 -4.881625 0.119283 -6.477375 16.216197 -1.781135 12.663352 1.448600 0.194400 4.287300 -13.756881 -11.184636 1.061968 -68.221661 4.008866 33.810251 19.930855 -20.922700 -6.785879 -0.940884 -7.720266 -26.993063 39.797746 49.716002 37.883700 -7.125000 0.000000 0.000000 178.393200 2.193000 1.544800 14.777659 11.017965 0.840697 67.337145 -6.866892 29.146442 -16.300086 20.658550 -5.115949 -0.168711 -2.909025 -0.616311 -24.375259 44.283937 -18.385500 7.125000 0.000000 0.000000 7.567900 19.796500 9.750200 
0.305029 18.492898 -31.620352 -0.932632 -0.209748 7.583930 -1.669963 1.703164 1.248620 -14.647902 -9.158799 -10.637115 -2.422179 5.929882 17.985989 -1.276990 6.112701 2.149953 0.286300 -3.441300 -9.510000 3.152703 -0.265617 0.678701 9.717934 6.482354 -19.009391 -0.774405 -11.777626 32.682490 -0.830585 -3.160856 -5.198051 -0.298100 -3.510500 9.703300 -0.805470 1.222098 -4.714373 2.283466 2.075668 -3.801498 -4.034432 0.825049 1.370148 -4.620018 0.458721 -4.989455 16.845975 -1.474259 11.010956 1.476800 0.220700 3.821200 -13.658466 -11.382431 1.095375 -67.893192 4.185326 34.118721 19.919344 -20.920708 -6.810447 -0.904235 -7.737715 -27.137917 39.737689 49.963804 37.902600 -7.125000 0.000000 0.000000 178.263500 2.384400 1.663500 14.808011 10.955915 0.736932 67.690719 -6.976877 28.649703 -16.260030 20.574439 -5.107750 -0.188466 -2.923206 -0.379859 -24.448982 44.367687 -18.468200 7.125000 0.000000 0.000000 7.566400 19.914800 9.757600 
0.370115 18.487389 -31.634023 -0.954092 -0.373952 7.608580 -1.621279 1.667111 1.249573 -14.903153 -8.587485 -11.024049 -2.391842 6.012757 18.209867 -1.164718 5.751996 2.212319 0.363900 -3.875100 -10.725500 3.101858 -0.228572 0.646286 9.518285 6.327519 -19.244690 -0.834434 -11.822813 32.803542 -1.096326 -2.582637 -4.598986 -0.399700 -4.059300 11.243500 -1.107391 1.165690 -4.779211 2.650810 2.047315 -3.513223 -3.788498 0.815785 1.482681 -4.836174 0.514219 -5.263845 16.817301 -1.324701 10.617239 1.509100 0.252100 3.816100 -13.715204 -11.409549 1.055018 -68.157355 3.935981 33.542485 19.785895 -20.753320 -6.763342 -0.939962 -7.821146 -26.587558 40.118853 50.639160 38.510100 -7.125000 0.000000 0.000000 178.091200 3.125000 1.803000 14.801630 10.973959 0.745474 67.291899 -6.674885 28.694511 -16.277298 20.604055 -5.118357 -0.185850 -2.924139 -0.292657 -24.576862 44.353966 -18.572900 7.125000 0.000000 0.000000 7.502600 19.938800 9.676000 
0.436528 18.479738 -31.643714 -0.997806 -0.534738 7.523988 -1.580347 1.648325 1.272191 -15.161531 -7.961403 -11.330504 -2.358256 6.087505 18.430713 -1.051495 5.381666 2.342936 0.425100 -4.184500 -11.596300 3.019385 -0.204739 0.646347 9.391811 5.820225 -19.555542 -0.906874 -11.876504 32.969212 -1.321409 -2.065253 -3.785986 -0.480300 -4.444500 12.330700 -1.225267 1.187279 -4.772946 2.726775 2.080698 -2.961482 -3.630763 0.841102 1.569174 -4.537780 0.383842 -5.990201 16.296077 -1.358720 10.304239 1.387400 0.193400 3.889400 -13.750238 -11.406085 1.017409 -68.071643 3.565108 33.341820 19.654381 -20.636215 -6.757323 -0.907091 -7.951205 -26.271415 40.655618 51.746621 39.395700 -7.125000 0.000000 0.000000 177.759800 4.286600 2.068100 14.767337 11.003055 0.726661 67.110602 -6.228409 28.350701 -16.259264 20.610904 -5.123412 -0.194827 -2.932270 -0.167851 -24.565811 44.582698 -18.628200 7.125000 0.000000 0.000000 7.574400 20.163800 9.787400 
0.505389 18.474127 -31.649019 -0.952092 -0.700858 7.461799 -1.532687 1.603992 1.253491 -15.514822 -7.362726 -11.578971 -2.331365 6.160160 18.674584 -0.793999 4.528986 2.376558 0.283200 -3.422700 -9.457800 2.899490 -0.189716 0.617990 9.212211 5.164377 -19.928918 -0.967099 -11.936062 33.126105 -1.106742 -2.450696 -2.925539 -0.326300 -3.671400 10.154100 -1.273328 1.270973 -4.643990 2.638907 2.173453 -3.228877 -3.618880 0.896904 1.560106 -4.474912 0.573683 -5.027618 16.502113 -1.159909 9.242017 1.393600 0.193600 3.584800 -13.741634 -11.466755 1.013227 -68.068166 3.962318 33.270843 19.539823 -20.498638 -6.674664 -0.941299 -7.903194 -26.209772 40.318674 51.364586 38.943600 -7.125000 0.000000 0.000000 177.826300 3.835400 2.025000 14.779703 10.920325 0.667437 67.223357 -6.559067 28.201982 -16.215982 20.557621 -5.111745 -0.188894 -2.946844 0.004586 -24.863782 44.719370 -18.923000 7.125000 0.000000 0.000000 7.477800 20.394800 9.678600 
0.569047 18.465966 -31.663199 -0.985493 -0.826800 7.414460 -1.484324 1.578996 1.254136 -15.758306 -6.937239 -11.809934 -2.309954 6.212890 18.841652 -0.659500 4.076669 2.433800 0.230200 -3.087800 -8.523400 2.803143 -0.157683 0.589271 9.102860 4.549512 -20.336665 -1.037010 -12.010189 33.333487 -0.640192 -3.357215 -2.282527 -0.109200 -2.130700 5.867100 -1.437251 1.232055 -4.671413 2.813526 2.139278 -3.069630 -3.471294 0.882108 1.619068 -4.502309 0.698463 -5.140456 16.566869 -0.987781 9.201808 1.418800 0.279800 3.603700 -13.772252 -11.464304 0.997264 -68.180054 4.007556 32.970803 19.414724 -20.321918 -6.567898 -1.004303 -7.848804 -26.223097 40.178020 50.732644 38.618700 -7.125000 0.000000 0.000000 178.081800 3.227600 1.808200 14.789429 10.922115 0.674043 67.062310 -6.398049 28.121553 -16.204321 20.543580 -5.103180 -0.198190 -2.939586 -0.011641 -24.674943 44.521612 -18.705600 7.125000 0.000000 0.000000 7.509000 20.144400 9.700300 
0.627604 18.460355 -31.675645 -1.141531 -1.024473 7.397767 -1.446116 1.556500 1.252917 -15.821777 -6.603537 -11.987190 -2.293310 6.246488 18.958573 -0.525271 3.628667 2.416062 0.165500 -2.621000 -7.225400 2.728720 -0.123851 0.538040 9.074182 4.196231 -20.659124 -1.117141 -12.099540 33.585037 -0.662203 -3.253033 -1.497270 -0.088900 -1.923100 5.293100 -1.435788 1.252677 -4.569096 2.919240 2.170068 -3.117260 -3.443042 0.899182 1.551842 -4.555346 0.792728 -5.039598 16.773034 -0.884668 9.056656 1.460800 0.324100 3.568900 -13.775095 -11.439116 0.991735 -68.136121 4.279834 32.820606 19.268576 -20.219721 -6.558389 -0.960640 -7.997685 -26.200588 41.151419 51.763385 39.926400 -7.125000 0.000000 0.000000 177.938600 4.469600 1.895700 14.792748 10.884990 0.658862 67.076511 -6.474345 28.158759 -16.294089 20.639938 -5.124780 -0.180175 -2.919767 -0.110441 -24.784113 44.101085 -18.678500 7.125000 0.000000 0.000000 7.331900 19.750200 9.438600 
0.687590 18.456478 -31.684521 -1.185761 -1.254140 7.420608 -1.415820 1.518452 1.215710 -16.011583 -6.498054 -12.068224 -2.279296 6.286186 19.084083 -0.442084 3.341459 2.280140 0.078400 -1.805700 -4.969100 2.616498 -0.105455 0.469209 8.914844 3.868014 -20.965253 -1.203629 -12.191220 33.834186 -0.805493 -2.897106 -0.393767 -0.107600 -2.115100 5.823800 -1.349138 1.382268 -4.347687 2.732376 2.311859 -3.654961 -3.517826 0.971937 1.387759 -4.358637 0.926095 -4.023907 16.940211 -0.801523 8.523653 1.444100 0.315600 3.328000 -13.761198 -11.447335 1.014960 -67.982753 4.904706 32.991465 19.150490 -20.051974 -6.399258 -1.016829 -7.752512 -26.244517 39.211101 50.080913 37.445000 -7.125000 0.000000 0.000000 178.032300 2.313900 1.887800 14.802183 10.793064 0.610143 67.394618 -7.040271 27.921371 -16.350512 20.696698 -5.141108 -0.180224 -2.907846 -0.177759 -24.697409 43.954578 -18.561200 7.125000 0.000000 0.000000 7.328900 19.572100 9.421100 
0.746147 18.459131 -31.693600 -1.364343 -1.500419 7.433801 -1.387102 1.509715 1.232812 -16.080492 -6.161437 -12.300731 -2.249020 6.347306 19.247283 -0.420946 3.273386 2.204821 0.093600 -1.973200 -5.431500 2.544971 -0.075775 0.433171 8.823357 3.707663 -21.191213 -1.279600 -12.261196 34.066063 -0.850512 -2.734838 0.596594 -0.096800 -2.006400 5.523200 -1.189102 1.426523 -4.380458 2.740600 2.363324 -3.199945 -3.574289 0.993054 1.350378 -4.228065 0.736109 -5.362938 16.903099 -1.005380 9.524898 1.434800 0.327200 3.682600 -13.790633 -11.343323 1.013027 -67.776819 4.574166 32.823340 18.867610 -19.749825 -6.271869 -1.070852 -7.787587 -26.050953 39.580443 50.192031 37.864600 -7.125000 0.000000 0.000000 178.131000 2.533600 1.785500 14.820344 10.858121 0.647348 67.342978 -6.629859 27.663674 -16.238409 20.591935 -5.099392 -0.167987 -2.922509 -0.124963 -24.861825 44.052729 -18.736000 7.125000 0.000000 0.000000 7.278600 19.727500 9.367400 
